<?xml version="1.0" encoding="utf-8"?>
<!-- Generator: Adobe Illustrator 20.1.0, SVG Export Plug-In . SVG Version: 6.00 Build 0)  -->
<svg version="1.1" id="Layer_1" xmlns="http://www.w3.org/2000/svg" xmlns:xlink="http://www.w3.org/1999/xlink" x="0px" y="0px"
	 viewBox="0 0 100 100" style="enable-background:new 0 0 100 100;" xml:space="preserve">
<style type="text/css">
	.st0{fill:#003D67;}
</style>
<g>
	<path class="st0" d="M28.1,50c0.7-1.1,0.2-2.2-0.2-3.2c-1.5-3.9-3.1-7.7-4.6-11.6c-2.1-5.4-4.3-10.8-5.4-16.5
		c-0.2-1-0.3-1.9-0.4-2.9c-0.2-1.9,0.7-3.2,2.5-3.4c3.6-0.4,7.2-0.2,10.4,1.9c2.2,1.4,3.3,3.5,3,6.2c-0.1,0.8,0.1,1.2,0.8,1.5
		c2.5,1.4,3.7,3.8,4.8,6.3c1.3,2.8,2.5,5.7,3.8,8.7c0.6-0.7,1.2-1.2,1.7-1.8c5.7-6.5,11.5-13,17.2-19.5c0.8-0.9,1.7-1.7,2.6-2.5
		c1.3-1.1,2-1.2,3.5-0.4c1.6,0.8,2.8,2,3.6,3.6c0.9,1.9,1.7,3.8,2.5,5.8c0.5,1.4,0.2,2.7-0.6,3.9c-2.4,3.9-4.9,7.8-7.3,11.7
		c-2.3,3.8-4.6,7.7-6.8,11.6c-0.7,1.1-0.3,1.7,1,1.8c2.4,0.2,4.7,0.3,7.1,0.5c5.6,0.4,11.3,0.6,16.9,1.2c4.2,0.4,8.3,1.3,12.5,2
		c0,0.2,0,0.3,0,0.5c-1.2,0.3-2.4,0.6-3.6,0.8c-5,1-10,2.1-14.9,3.7c-1.6,0.5-3.4,0.5-5,0.6c-2.5,0.2-5,0.3-7.5,0.4
		c-1.6,0.1-3,0.7-4.1,1.8c-1.4,1.4-3.1,1.7-4.9,1.9c-1.3,0.2-2.6,0.8-3.9,1.3c-0.6,0.2-0.7,0.7-0.5,1.3c1.5,5.1,2.9,10.2,4.3,15.3
		c0.1,0.3,0.2,0.6,0.3,0.8c-0.7,0.8-1.3,1.4-1.9,2.1c-1.4,1.7-1.9,1.9-3.6,0.4c-1.7-1.6-3.4-3.2-4.8-5c-2.7-3.3-5.2-6.7-7.7-10.1
		c-0.3-0.3-0.5-0.7-0.8-1c-0.1,0-0.2,0-0.3,0c-3.2,2.8-6.5,5.5-9.6,8.4c-3.7,3.4-6.8,7.3-9.5,11.6c-0.5,0.8-0.8,0.8-1.6,0.4
		c-1.4-0.7-2.9-1.3-4.4-1.8c-0.6-0.2-1-0.5-0.9-1.2c0,0,0-0.1,0-0.1c-0.8-4.4,1.5-7.9,3.7-11.3c1.9-3,3.7-6,5.6-9.1
		c0.6-1,0.5-1.3-0.6-1.6c-1.7-0.4-3.4-0.1-4.9,0.9c-0.6,0.4-0.9,0.4-1.4-0.1c-0.7-0.7-1.5-1.4-2.3-2c-1.6-1.1-2.6-2.5-3.1-4.4
		c-0.6-2.4-1.4-4.6-2-7c-0.5-2,0.2-3.6,1.9-4.7c2.5-1.6,4.9-2.1,7.2,0.1c1.8,1.8,4.1,1.9,6.5,2c1.4,0.1,2.8,0,4.2,0
		C27.1,49.8,27.5,49.9,28.1,50z"/>
</g>
</svg>
